<?xml version="1.0" encoding="UTF-8" standalone="no"?>
<!DOCTYPE svg PUBLIC "-//W3C//DTD SVG 1.1//EN"
 "http://www.w3.org/Graphics/SVG/1.1/DTD/svg11.dtd">
<!-- Generated by graphviz version 2.47.0 (20210316.0004)
 -->
<!-- Title: dbml Pages: 1 -->
<svg width="1526pt" height="1650pt"
 viewBox="0.00 0.00 1526.10 1649.76" xmlns="http://www.w3.org/2000/svg" xmlns:xlink="http://www.w3.org/1999/xlink">
<g id="graph0" class="graph" transform="scale(1 1) rotate(0) translate(4 1645.76)">
<title>dbml</title>
<!-- Airline -->
<g id="Airline" class="node">
<title>Airline</title>
<ellipse fill="none" stroke="black" stroke-width="0" cx="1136.97" cy="-1384.37" rx="227.88" ry="257.27"/>
<polygon fill="#1d71b8" stroke="transparent" points="977.97,-1504.37 977.97,-1564.37 1295.97,-1564.37 1295.97,-1504.37 977.97,-1504.37"/>
<polygon fill="none" stroke="#29235c" points="977.97,-1504.37 977.97,-1564.37 1295.97,-1564.37 1295.97,-1504.37 977.97,-1504.37"/>
<text text-anchor="start" x="1030.28" y="-1525.57" font-family="Helvetica,sans-Serif" font-weight="bold" font-size="32.00" fill="#ffffff"> &#160;&#160;&#160;&#160;&#160;&#160;Airline &#160;&#160;&#160;&#160;&#160;&#160;</text>
<polygon fill="#e7e2dd" stroke="transparent" points="977.97,-1444.37 977.97,-1504.37 1295.97,-1504.37 1295.97,-1444.37 977.97,-1444.37"/>
<polygon fill="none" stroke="#29235c" points="977.97,-1444.37 977.97,-1504.37 1295.97,-1504.37 1295.97,-1444.37 977.97,-1444.37"/>
<text text-anchor="start" x="988.97" y="-1465.57" font-family="Helvetica,sans-Serif" font-weight="bold" font-size="32.00" fill="#29235c">id</text>
<text text-anchor="start" x="1013.85" y="-1465.57" font-family="Helvetica,sans-Serif" font-size="32.00" fill="#29235c"> &#160;&#160;&#160;</text>
<text text-anchor="start" x="1142.75" y="-1465.57" font-family="Helvetica,sans-Serif" font-style="italic" font-size="32.00" fill="#29235c">INTEGER</text>
<polygon fill="#e7e2dd" stroke="transparent" points="977.97,-1384.37 977.97,-1444.37 1295.97,-1444.37 1295.97,-1384.37 977.97,-1384.37"/>
<polygon fill="none" stroke="#29235c" points="977.97,-1384.37 977.97,-1444.37 1295.97,-1444.37 1295.97,-1384.37 977.97,-1384.37"/>
<text text-anchor="start" x="988.97" y="-1404.57" font-family="Helvetica,sans-Serif" font-size="32.00" fill="#29235c">name &#160;&#160;&#160;</text>
<text text-anchor="start" x="1128.54" y="-1405.57" font-family="Helvetica,sans-Serif" font-style="italic" font-size="32.00" fill="#29235c">VARCHAR</text>
<polygon fill="#e7e2dd" stroke="transparent" points="977.97,-1324.37 977.97,-1384.37 1295.97,-1384.37 1295.97,-1324.37 977.97,-1324.37"/>
<polygon fill="none" stroke="#29235c" points="977.97,-1324.37 977.97,-1384.37 1295.97,-1384.37 1295.97,-1324.37 977.97,-1324.37"/>
<text text-anchor="start" x="988.97" y="-1344.57" font-family="Helvetica,sans-Serif" font-size="32.00" fill="#29235c">iata &#160;&#160;&#160;</text>
<text text-anchor="start" x="1089.45" y="-1345.57" font-family="Helvetica,sans-Serif" font-style="italic" font-size="32.00" fill="#29235c">VARCHAR(2)</text>
<polygon fill="#e7e2dd" stroke="transparent" points="977.97,-1264.37 977.97,-1324.37 1295.97,-1324.37 1295.97,-1264.37 977.97,-1264.37"/>
<polygon fill="none" stroke="#29235c" points="977.97,-1264.37 977.97,-1324.37 1295.97,-1324.37 1295.97,-1264.37 977.97,-1264.37"/>
<text text-anchor="start" x="988.97" y="-1284.57" font-family="Helvetica,sans-Serif" font-size="32.00" fill="#29235c">icao &#160;&#160;&#160;</text>
<text text-anchor="start" x="1089.45" y="-1285.57" font-family="Helvetica,sans-Serif" font-style="italic" font-size="32.00" fill="#29235c">VARCHAR(3)</text>
<polygon fill="#e7e2dd" stroke="transparent" points="977.97,-1204.37 977.97,-1264.37 1295.97,-1264.37 1295.97,-1204.37 977.97,-1204.37"/>
<polygon fill="none" stroke="#29235c" points="977.97,-1204.37 977.97,-1264.37 1295.97,-1264.37 1295.97,-1204.37 977.97,-1204.37"/>
<text text-anchor="start" x="988.72" y="-1224.57" font-family="Helvetica,sans-Serif" font-size="32.00" fill="#29235c">country &#160;&#160;&#160;</text>
<text text-anchor="start" x="1128.75" y="-1225.57" font-family="Helvetica,sans-Serif" font-style="italic" font-size="32.00" fill="#29235c">VARCHAR</text>
<polygon fill="none" stroke="#29235c" stroke-width="2" points="976.97,-1203.37 976.97,-1565.37 1296.97,-1565.37 1296.97,-1203.37 976.97,-1203.37"/>
</g>
<!-- Airport -->
<g id="Airport" class="node">
<title>Airport</title>
<ellipse fill="none" stroke="black" stroke-width="0" cx="1136.97" cy="-554.37" rx="381.26" ry="554.24"/>
<polygon fill="#1d71b8" stroke="transparent" points="869.97,-884.37 869.97,-944.37 1404.97,-944.37 1404.97,-884.37 869.97,-884.37"/>
<polygon fill="none" stroke="#29235c" points="869.97,-884.37 869.97,-944.37 1404.97,-944.37 1404.97,-884.37 869.97,-884.37"/>
<text text-anchor="start" x="1028.11" y="-905.57" font-family="Helvetica,sans-Serif" font-weight="bold" font-size="32.00" fill="#ffffff"> &#160;&#160;&#160;&#160;&#160;&#160;Airport &#160;&#160;&#160;&#160;&#160;&#160;</text>
<polygon fill="#e7e2dd" stroke="transparent" points="869.97,-824.37 869.97,-884.37 1404.97,-884.37 1404.97,-824.37 869.97,-824.37"/>
<polygon fill="none" stroke="#29235c" points="869.97,-824.37 869.97,-884.37 1404.97,-884.37 1404.97,-824.37 869.97,-824.37"/>
<text text-anchor="start" x="880.97" y="-845.57" font-family="Helvetica,sans-Serif" font-weight="bold" font-size="32.00" fill="#29235c">id</text>
<text text-anchor="start" x="905.85" y="-845.57" font-family="Helvetica,sans-Serif" font-size="32.00" fill="#29235c"> &#160;&#160;&#160;</text>
<text text-anchor="start" x="1251.75" y="-845.57" font-family="Helvetica,sans-Serif" font-style="italic" font-size="32.00" fill="#29235c">INTEGER</text>
<polygon fill="#e7e2dd" stroke="transparent" points="869.97,-764.37 869.97,-824.37 1404.97,-824.37 1404.97,-764.37 869.97,-764.37"/>
<polygon fill="none" stroke="#29235c" points="869.97,-764.37 869.97,-824.37 1404.97,-824.37 1404.97,-764.37 869.97,-764.37"/>
<text text-anchor="start" x="880.97" y="-784.57" font-family="Helvetica,sans-Serif" font-size="32.00" fill="#29235c">name &#160;&#160;&#160;</text>
<text text-anchor="start" x="1237.54" y="-785.57" font-family="Helvetica,sans-Serif" font-style="italic" font-size="32.00" fill="#29235c">VARCHAR</text>
<polygon fill="#e7e2dd" stroke="transparent" points="869.97,-704.37 869.97,-764.37 1404.97,-764.37 1404.97,-704.37 869.97,-704.37"/>
<polygon fill="none" stroke="#29235c" points="869.97,-704.37 869.97,-764.37 1404.97,-764.37 1404.97,-704.37 869.97,-704.37"/>
<text text-anchor="start" x="880.97" y="-724.57" font-family="Helvetica,sans-Serif" font-size="32.00" fill="#29235c">city &#160;&#160;&#160;</text>
<text text-anchor="start" x="1237.54" y="-725.57" font-family="Helvetica,sans-Serif" font-style="italic" font-size="32.00" fill="#29235c">VARCHAR</text>
<polygon fill="#e7e2dd" stroke="transparent" points="869.97,-644.37 869.97,-704.37 1404.97,-704.37 1404.97,-644.37 869.97,-644.37"/>
<polygon fill="none" stroke="#29235c" points="869.97,-644.37 869.97,-704.37 1404.97,-704.37 1404.97,-644.37 869.97,-644.37"/>
<text text-anchor="start" x="880.97" y="-664.57" font-family="Helvetica,sans-Serif" font-size="32.00" fill="#29235c">country &#160;&#160;&#160;</text>
<text text-anchor="start" x="1237.54" y="-665.57" font-family="Helvetica,sans-Serif" font-style="italic" font-size="32.00" fill="#29235c">VARCHAR</text>
<polygon fill="#e7e2dd" stroke="transparent" points="869.97,-584.37 869.97,-644.37 1404.97,-644.37 1404.97,-584.37 869.97,-584.37"/>
<polygon fill="none" stroke="#29235c" points="869.97,-584.37 869.97,-644.37 1404.97,-644.37 1404.97,-584.37 869.97,-584.37"/>
<text text-anchor="start" x="880.97" y="-604.57" font-family="Helvetica,sans-Serif" font-size="32.00" fill="#29235c">iata &#160;&#160;&#160;</text>
<text text-anchor="start" x="1198.45" y="-605.57" font-family="Helvetica,sans-Serif" font-style="italic" font-size="32.00" fill="#29235c">VARCHAR(3)</text>
<polygon fill="#e7e2dd" stroke="transparent" points="869.97,-524.37 869.97,-584.37 1404.97,-584.37 1404.97,-524.37 869.97,-524.37"/>
<polygon fill="none" stroke="#29235c" points="869.97,-524.37 869.97,-584.37 1404.97,-584.37 1404.97,-524.37 869.97,-524.37"/>
<text text-anchor="start" x="880.97" y="-544.57" font-family="Helvetica,sans-Serif" font-size="32.00" fill="#29235c">icao &#160;&#160;&#160;</text>
<text text-anchor="start" x="1198.45" y="-545.57" font-family="Helvetica,sans-Serif" font-style="italic" font-size="32.00" fill="#29235c">VARCHAR(4)</text>
<polygon fill="#e7e2dd" stroke="transparent" points="869.97,-464.37 869.97,-524.37 1404.97,-524.37 1404.97,-464.37 869.97,-464.37"/>
<polygon fill="none" stroke="#29235c" points="869.97,-464.37 869.97,-524.37 1404.97,-524.37 1404.97,-464.37 869.97,-464.37"/>
<text text-anchor="start" x="880.97" y="-484.57" font-family="Helvetica,sans-Serif" font-size="32.00" fill="#29235c">latitude &#160;&#160;&#160;</text>
<text text-anchor="start" x="1290.85" y="-485.57" font-family="Helvetica,sans-Serif" font-style="italic" font-size="32.00" fill="#29235c">FLOAT</text>
<polygon fill="#e7e2dd" stroke="transparent" points="869.97,-404.37 869.97,-464.37 1404.97,-464.37 1404.97,-404.37 869.97,-404.37"/>
<polygon fill="none" stroke="#29235c" points="869.97,-404.37 869.97,-464.37 1404.97,-464.37 1404.97,-404.37 869.97,-404.37"/>
<text text-anchor="start" x="880.97" y="-424.57" font-family="Helvetica,sans-Serif" font-size="32.00" fill="#29235c">longitude &#160;&#160;&#160;</text>
<text text-anchor="start" x="1290.85" y="-425.57" font-family="Helvetica,sans-Serif" font-style="italic" font-size="32.00" fill="#29235c">FLOAT</text>
<polygon fill="#e7e2dd" stroke="transparent" points="869.97,-344.37 869.97,-404.37 1404.97,-404.37 1404.97,-344.37 869.97,-344.37"/>
<polygon fill="none" stroke="#29235c" points="869.97,-344.37 869.97,-404.37 1404.97,-404.37 1404.97,-344.37 869.97,-344.37"/>
<text text-anchor="start" x="880.97" y="-364.57" font-family="Helvetica,sans-Serif" font-size="32.00" fill="#29235c">altitude &#160;&#160;&#160;</text>
<text text-anchor="start" x="1251.75" y="-365.57" font-family="Helvetica,sans-Serif" font-style="italic" font-size="32.00" fill="#29235c">INTEGER</text>
<polygon fill="#e7e2dd" stroke="transparent" points="869.97,-284.37 869.97,-344.37 1404.97,-344.37 1404.97,-284.37 869.97,-284.37"/>
<polygon fill="none" stroke="#29235c" points="869.97,-284.37 869.97,-344.37 1404.97,-344.37 1404.97,-284.37 869.97,-284.37"/>
<text text-anchor="start" x="880.97" y="-304.57" font-family="Helvetica,sans-Serif" font-size="32.00" fill="#29235c">timezone &#160;&#160;&#160;</text>
<text text-anchor="start" x="1237.54" y="-305.57" font-family="Helvetica,sans-Serif" font-style="italic" font-size="32.00" fill="#29235c">VARCHAR</text>
<polygon fill="#e7e2dd" stroke="transparent" points="869.97,-224.37 869.97,-284.37 1404.97,-284.37 1404.97,-224.37 869.97,-224.37"/>
<polygon fill="none" stroke="#29235c" points="869.97,-224.37 869.97,-284.37 1404.97,-284.37 1404.97,-224.37 869.97,-224.37"/>
<text text-anchor="start" x="880.97" y="-244.57" font-family="Helvetica,sans-Serif" font-size="32.00" fill="#29235c">dst &#160;&#160;&#160;</text>
<text text-anchor="start" x="1237.54" y="-245.57" font-family="Helvetica,sans-Serif" font-style="italic" font-size="32.00" fill="#29235c">VARCHAR</text>
<polygon fill="#e7e2dd" stroke="transparent" points="869.97,-164.37 869.97,-224.37 1404.97,-224.37 1404.97,-164.37 869.97,-164.37"/>
<polygon fill="none" stroke="#29235c" points="869.97,-164.37 869.97,-224.37 1404.97,-224.37 1404.97,-164.37 869.97,-164.37"/>
<text text-anchor="start" x="880.73" y="-184.57" font-family="Helvetica,sans-Serif" font-size="32.00" fill="#29235c">tz_database_timezone &#160;&#160;&#160;</text>
<text text-anchor="start" x="1237.75" y="-185.57" font-family="Helvetica,sans-Serif" font-style="italic" font-size="32.00" fill="#29235c">VARCHAR</text>
<polygon fill="none" stroke="#29235c" stroke-width="2" points="868.47,-163.37 868.47,-945.37 1405.47,-945.37 1405.47,-163.37 868.47,-163.37"/>
</g>
<!-- Flight -->
<g id="Flight" class="node">
<title>Flight</title>
<ellipse fill="none" stroke="black" stroke-width="0" cx="359.92" cy="-704.37" rx="359.83" ry="342.48"/>
<polygon fill="#1d71b8" stroke="transparent" points="107.92,-884.37 107.92,-944.37 612.92,-944.37 612.92,-884.37 107.92,-884.37"/>
<polygon fill="none" stroke="#29235c" points="107.92,-884.37 107.92,-944.37 612.92,-944.37 612.92,-884.37 107.92,-884.37"/>
<text text-anchor="start" x="259.06" y="-905.57" font-family="Helvetica,sans-Serif" font-weight="bold" font-size="32.00" fill="#ffffff"> &#160;&#160;&#160;&#160;&#160;&#160;Flight &#160;&#160;&#160;&#160;&#160;&#160;</text>
<polygon fill="#e7e2dd" stroke="transparent" points="107.92,-824.37 107.92,-884.37 612.92,-884.37 612.92,-824.37 107.92,-824.37"/>
<polygon fill="none" stroke="#29235c" points="107.92,-824.37 107.92,-884.37 612.92,-884.37 612.92,-824.37 107.92,-824.37"/>
<text text-anchor="start" x="118.92" y="-845.57" font-family="Helvetica,sans-Serif" font-weight="bold" font-size="32.00" fill="#29235c">id</text>
<text text-anchor="start" x="143.81" y="-845.57" font-family="Helvetica,sans-Serif" font-size="32.00" fill="#29235c"> &#160;&#160;&#160;</text>
<text text-anchor="start" x="459.7" y="-845.57" font-family="Helvetica,sans-Serif" font-style="italic" font-size="32.00" fill="#29235c">INTEGER</text>
<polygon fill="#e7e2dd" stroke="transparent" points="107.92,-764.37 107.92,-824.37 612.92,-824.37 612.92,-764.37 107.92,-764.37"/>
<polygon fill="none" stroke="#29235c" points="107.92,-764.37 107.92,-824.37 612.92,-824.37 612.92,-764.37 107.92,-764.37"/>
<text text-anchor="start" x="118.92" y="-784.57" font-family="Helvetica,sans-Serif" font-size="32.00" fill="#29235c">flight_number &#160;&#160;&#160;</text>
<text text-anchor="start" x="445.49" y="-785.57" font-family="Helvetica,sans-Serif" font-style="italic" font-size="32.00" fill="#29235c">VARCHAR</text>
<polygon fill="#e7e2dd" stroke="transparent" points="107.92,-704.37 107.92,-764.37 612.92,-764.37 612.92,-704.37 107.92,-704.37"/>
<polygon fill="none" stroke="#29235c" points="107.92,-704.37 107.92,-764.37 612.92,-764.37 612.92,-704.37 107.92,-704.37"/>
<text text-anchor="start" x="118.92" y="-724.57" font-family="Helvetica,sans-Serif" font-size="32.00" fill="#29235c">airline_id &#160;&#160;&#160;</text>
<text text-anchor="start" x="459.7" y="-725.57" font-family="Helvetica,sans-Serif" font-style="italic" font-size="32.00" fill="#29235c">INTEGER</text>
<polygon fill="#e7e2dd" stroke="transparent" points="107.92,-644.37 107.92,-704.37 612.92,-704.37 612.92,-644.37 107.92,-644.37"/>
<polygon fill="none" stroke="#29235c" points="107.92,-644.37 107.92,-704.37 612.92,-704.37 612.92,-644.37 107.92,-644.37"/>
<text text-anchor="start" x="118.92" y="-664.57" font-family="Helvetica,sans-Serif" font-size="32.00" fill="#29235c">origin_airport_id &#160;&#160;&#160;</text>
<text text-anchor="start" x="459.7" y="-665.57" font-family="Helvetica,sans-Serif" font-style="italic" font-size="32.00" fill="#29235c">INTEGER</text>
<polygon fill="#e7e2dd" stroke="transparent" points="107.92,-584.37 107.92,-644.37 612.92,-644.37 612.92,-584.37 107.92,-584.37"/>
<polygon fill="none" stroke="#29235c" points="107.92,-584.37 107.92,-644.37 612.92,-644.37 612.92,-584.37 107.92,-584.37"/>
<text text-anchor="start" x="118.71" y="-604.57" font-family="Helvetica,sans-Serif" font-size="32.00" fill="#29235c">destination_airport_id &#160;&#160;&#160;</text>
<text text-anchor="start" x="459.81" y="-605.57" font-family="Helvetica,sans-Serif" font-style="italic" font-size="32.00" fill="#29235c">INTEGER</text>
<polygon fill="#e7e2dd" stroke="transparent" points="107.92,-524.37 107.92,-584.37 612.92,-584.37 612.92,-524.37 107.92,-524.37"/>
<polygon fill="none" stroke="#29235c" points="107.92,-524.37 107.92,-584.37 612.92,-584.37 612.92,-524.37 107.92,-524.37"/>
<text text-anchor="start" x="118.92" y="-544.57" font-family="Helvetica,sans-Serif" font-size="32.00" fill="#29235c">departure_time &#160;&#160;&#160;</text>
<text text-anchor="start" x="440.15" y="-545.57" font-family="Helvetica,sans-Serif" font-style="italic" font-size="32.00" fill="#29235c">DATETIME</text>
<polygon fill="#e7e2dd" stroke="transparent" points="107.92,-464.37 107.92,-524.37 612.92,-524.37 612.92,-464.37 107.92,-464.37"/>
<polygon fill="none" stroke="#29235c" points="107.92,-464.37 107.92,-524.37 612.92,-524.37 612.92,-464.37 107.92,-464.37"/>
<text text-anchor="start" x="118.92" y="-484.57" font-family="Helvetica,sans-Serif" font-size="32.00" fill="#29235c">arrival_time &#160;&#160;&#160;</text>
<text text-anchor="start" x="440.15" y="-485.57" font-family="Helvetica,sans-Serif" font-style="italic" font-size="32.00" fill="#29235c">DATETIME</text>
<polygon fill="none" stroke="#29235c" stroke-width="2" points="106.42,-463.37 106.42,-945.37 613.42,-945.37 613.42,-463.37 106.42,-463.37"/>
</g>
<!-- Flight&#45;&gt;Airline -->
<!-- Flight&#45;&gt;Airline -->
<g id="edge2" class="edge">
<title>Flight:e&#45;&gt;Airline:w</title>
<path fill="none" stroke="#29235c" stroke-width="3" d="M613.92,-734.37C795.45,-734.37 676.1,-954.29 755.83,-1117.37 836.29,-1281.93 792.04,-1467.35 966.82,-1474.18"/>
<polygon fill="#29235c" stroke="#29235c" stroke-width="3" points="966.9,-1477.68 976.97,-1474.37 967.03,-1470.68 966.9,-1477.68"/>
<text text-anchor="middle" x="970.74" y="-1483.97" font-family="Helvetica,sans-Serif" font-size="32.00" fill="#29235c">*</text>
<text text-anchor="middle" x="605.02" y="-705.57" font-family="Helvetica,sans-Serif" font-size="32.00" fill="#29235c">1</text>
</g>
<!-- Flight&#45;&gt;Airport -->
<!-- Flight&#45;&gt;Airport -->
<g id="edge4" class="edge">
<title>Flight:e&#45;&gt;Airport:w</title>
<path fill="none" stroke="#29235c" stroke-width="3" d="M613.92,-614.37C766.07,-614.37 715.73,-843.71 858.79,-854.01"/>
<polygon fill="#29235c" stroke="#29235c" stroke-width="3" points="858.85,-857.52 868.97,-854.37 859.09,-850.52 858.85,-857.52"/>
<text text-anchor="middle" x="862.74" y="-863.97" font-family="Helvetica,sans-Serif" font-size="32.00" fill="#29235c">*</text>
<text text-anchor="middle" x="605.02" y="-585.57" font-family="Helvetica,sans-Serif" font-size="32.00" fill="#29235c">1</text>
</g>
<!-- Flight&#45;&gt;Airport -->
<!-- Flight&#45;&gt;Airport -->
<g id="edge6" class="edge">
<title>Flight:e&#45;&gt;Airport:w</title>
<path fill="none" stroke="#29235c" stroke-width="3" d="M613.92,-674.37C749.14,-674.37 731.26,-845.35 858.7,-854.03"/>
<polygon fill="#29235c" stroke="#29235c" stroke-width="3" points="858.85,-857.54 868.97,-854.37 859.09,-850.54 858.85,-857.54"/>
<text text-anchor="middle" x="862.74" y="-825.57" font-family="Helvetica,sans-Serif" font-size="32.00" fill="#29235c">*</text>
<text text-anchor="middle" x="605.02" y="-645.57" font-family="Helvetica,sans-Serif" font-size="32.00" fill="#29235c">1</text>
</g>
</g>
</svg>
